<?xml version="1.0" encoding="utf-8"?>
<!-- Generator: Adobe Illustrator 16.0.3, SVG Export Plug-In . SVG Version: 6.00 Build 0)  -->
<!DOCTYPE svg PUBLIC "-//W3C//DTD SVG 1.1//EN" "http://www.w3.org/Graphics/SVG/1.1/DTD/svg11.dtd">
<svg version="1.1" xmlns="http://www.w3.org/2000/svg" xmlns:xlink="http://www.w3.org/1999/xlink" x="0px" y="0px" width="443px"
	 height="432px" viewBox="0 0 443 432" enable-background="new 0 0 443 432" xml:space="preserve">
<g id="Capa_3">
</g>
<g id="Capa_2">
	<path fill="#FFFFFF" d="M-113.5,263"/>
	<g>
		<line fill="none" stroke="#FFFFFF" stroke-width="1.7" stroke-miterlimit="10" x1="144" y1="134.5" x2="68" y2="140"/>
		<line fill="none" stroke="#FFFFFF" stroke-width="1.7" stroke-miterlimit="10" x1="145" y1="132.5" x2="149.5" y2="59"/>
		<path fill="none" stroke="#FFFFFF" stroke-width="1.7771" stroke-miterlimit="10" d="M423.131,155.53
			c4.244,4.302,4.371,11.057,0.286,15.087L173.757,416.88c-4.086,4.029-10.838,3.808-15.082-0.493L17.8,273.565
			c-4.244-4.302-4.373-11.057-0.287-15.087L267.174,12.217c4.085-4.029,10.837-3.809,15.08,0.494L423.131,155.53z"/>
		<path fill="none" stroke="#FFFFFF" stroke-width="1.77" stroke-miterlimit="10" d="M394.507,149.981
			c3.425,3.469,3.173,9.268-0.559,12.949L165.899,387.877c-3.732,3.68-9.533,3.85-12.955,0.382l-113.629-115.2
			c-3.423-3.469-3.173-9.268,0.558-12.949L267.922,35.165c3.732-3.681,9.532-3.852,12.954-0.382L394.507,149.981z"/>
		<circle fill="none" stroke="#FFFFFF" stroke-width="1.77" stroke-miterlimit="10" cx="289" cy="284" r="7"/>
		
			<line fill="none" stroke="#FFFFFF" stroke-width="1.77" stroke-miterlimit="10" x1="378.333" y1="232.333" x2="239.334" y2="372.333"/>
		
			<rect x="289.556" y="291.184" transform="matrix(0.7119 -0.7023 0.7023 0.7119 -121.3652 299.2738)" fill="none" stroke="#FFFFFF" stroke-width="1.7" stroke-miterlimit="10" width="29" height="12.732"/>
		<g>
			<path fill="none" stroke="#FFFFFF" stroke-width="2.4" stroke-miterlimit="10" d="M204.031,253.654l-8.468-8.249l-16.932,17.381
				l-3.981-3.879l-5.108-40.61l3.913-4.017l22.919,22.327l5.271-5.411l3.981,3.879l-5.271,5.411l8.468,8.249L204.031,253.654z
				 M191.582,241.526l-15.947-15.535l3.728,28.079L191.582,241.526z"/>
			<path fill="none" stroke="#FFFFFF" stroke-width="2.4" stroke-miterlimit="10" d="M201.551,221.304
				c-4.182-4.074-7.073-7.84-8.672-11.298s-2.155-6.822-1.666-10.092s2.154-6.362,4.994-9.277c2.094-2.149,4.313-3.663,6.656-4.541
				c2.343-0.877,4.75-1.143,7.219-0.797c2.469,0.346,5.03,1.225,7.682,2.637c2.653,1.412,5.732,3.826,9.239,7.242
				c4.15,4.042,7.029,7.788,8.637,11.237c1.608,3.448,2.172,6.813,1.691,10.09c-0.481,3.277-2.15,6.383-5.008,9.315
				c-3.764,3.863-7.941,5.706-12.533,5.528C214.273,231.123,208.193,227.774,201.551,221.304z M206.476,216.248
				c5.806,5.655,10.42,8.651,13.842,8.983c3.422,0.333,6.233-0.63,8.435-2.889c2.201-2.259,3.085-5.099,2.656-8.52
				c-0.431-3.419-3.541-7.95-9.331-13.59c-5.823-5.673-10.44-8.67-13.854-8.996c-3.414-0.324-6.239,0.66-8.475,2.956
				c-2.201,2.26-3.115,4.886-2.738,7.879C197.515,205.866,200.669,210.591,206.476,216.248z"/>
			<path fill="none" stroke="#FFFFFF" stroke-width="2.4" stroke-miterlimit="10" d="M264.679,191.4l-8.468-8.249l-16.933,17.381
				l-3.981-3.879l-5.108-40.61l3.914-4.018l22.919,22.328l5.271-5.411l3.981,3.878l-5.271,5.411l8.468,8.25L264.679,191.4z
				 M252.229,179.272l-15.947-15.535l3.727,28.079L252.229,179.272z"/>
		</g>
		<line fill="none" stroke="#FFFFFF" stroke-miterlimit="10" x1="400.5" y1="194" x2="400.5" y2="362"/>
		<path fill="none" stroke="#FFFFFF" stroke-miterlimit="10" d="M403.5,372.777c0,0.951-0.771,1.723-1.722,1.723h-2.557
			c-0.951,0-1.722-0.771-1.722-1.723v-8.555c0-0.951,0.771-1.723,1.722-1.723h2.557c0.951,0,1.722,0.771,1.722,1.723V372.777z"/>
		<path fill="none" stroke="#FFFFFF" stroke-miterlimit="10" d="M411.5,389.198c0,3.331-2.37,7.302-5.941,7.302h-10.161
			c-3.571,0-6.897-3.971-6.897-7.302v-9.475c0-3.331,3.326-5.224,6.897-5.224h10.161c3.571,0,5.941,1.893,5.941,5.224V389.198z"/>
		<path fill="none" stroke="#FFFFFF" stroke-miterlimit="10" d="M397.5,396.5h-5v4.763c0,0.943,1.507,2.237,2.458,2.237h1.723
			c0.951,0,0.819-1.294,0.819-2.237V396.5z"/>
		<path fill="none" stroke="#FFFFFF" stroke-miterlimit="10" d="M407.5,396.5h-5v4.784c0,0.933,0.979,2.216,1.931,2.216h1.722
			c0.951,0,1.348-1.283,1.348-2.216V396.5z"/>
	</g>
	<g>
	</g>
	<g>
	</g>
	<g>
	</g>
	<g>
	</g>
	<g>
	</g>
	<g>
	</g>
	<g>
	</g>
	<g>
	</g>
	<g>
	</g>
	<g>
	</g>
	<g>
	</g>
	<g>
	</g>
	<g>
	</g>
	<g>
	</g>
	<g>
	</g>
</g>
</svg>
