<?xml version="1.0" encoding="utf-8"?>
<!-- Generator: Adobe Illustrator 16.0.3, SVG Export Plug-In . SVG Version: 6.00 Build 0)  -->
<!DOCTYPE svg PUBLIC "-//W3C//DTD SVG 1.1//EN" "http://www.w3.org/Graphics/SVG/1.1/DTD/svg11.dtd">
<svg version="1.1" id="Capa_1" xmlns="http://www.w3.org/2000/svg" xmlns:xlink="http://www.w3.org/1999/xlink" x="0px" y="0px"
	 width="331.351px" height="143.244px" viewBox="0 0 331.351 143.244" enable-background="new 0 0 331.351 143.244"
	 xml:space="preserve">
<g>
	<g>
		<path fill="#D9232E" d="M2.213,1.973h32.4c10.931,0,19.131,2.935,24.6,8.8c5.465,5.869,8.2,14.469,8.2,25.8v13.8
			c0,11.334-2.734,19.935-8.2,25.8c-5.469,5.869-13.669,8.8-24.6,8.8h-10.4v57h-22V1.973z M34.613,64.973c3.6,0,6.3-1,8.1-3
			c1.8-2,2.7-5.4,2.7-10.2v-16.6c0-4.8-0.9-8.2-2.7-10.2c-1.8-2-4.5-3-8.1-3h-10.4v43H34.613z"/>
		<path fill="#D9232E" d="M79.411,1.973h60v20h-38v37h30.2v20h-30.2v43h38v20h-60V1.973z"/>
		<path fill="#D9232E" d="M152.009,1.973h22v120h36.2v20h-58.2V1.973z"/>
		<path fill="#D9232E" d="M220.807,1.973h22v140h-22V1.973z"/>
		<path fill="#D9232E" d="M278.605,70.373l-24.2-68.4h23.2l14.8,45.2h0.4l15.199-45.2h20.801l-24.2,68.4l25.399,71.601h-23.199
			l-16-48.801h-0.4l-16.4,48.801h-20.799L278.605,70.373z"/>
	</g>
</g>
<g>
</g>
<g>
</g>
<g>
</g>
<g>
</g>
<g>
</g>
<g>
</g>
<g>
</g>
<g>
</g>
<g>
</g>
<g>
</g>
<g>
</g>
<g>
</g>
<g>
</g>
<g>
</g>
<g>
</g>
</svg>
